<?xml version="1.0" encoding="utf-8"?>
<!-- Generator: Adobe Illustrator 23.0.3, SVG Export Plug-In . SVG Version: 6.00 Build 0)  -->
<svg version="1.1" xmlns="http://www.w3.org/2000/svg" xmlns:xlink="http://www.w3.org/1999/xlink" x="0px" y="0px"
	 viewBox="0 0 1008 792" style="enable-background:new 0 0 1008 792;" xml:space="preserve">
<style type="text/css">
	.st0{fill:#FFFFFF;}
	.st1{clip-path:url(#SVGID_2_);}
	.st2{clip-path:url(#SVGID_4_);}
	.st3{fill:none;stroke:#000000;stroke-miterlimit:10;}
	.st4{fill:none;stroke:#000000;stroke-width:0.3;}
	.st5{clip-path:url(#SVGID_6_);}
	.st6{clip-path:url(#SVGID_8_);}
	.st7{clip-path:url(#SVGID_10_);}
	.st8{clip-path:url(#SVGID_12_);}
</style>
<g id="_x3C_Layer_x3E_">
</g>
<g id="Layer_1">
	<g>
		<path d="M346.8,396.7v-53.2h-92.9l0-28h93v-45.1c0-50.4,2-89.4,6.1-117c4.1-27.6,15.5-56.2,34.3-85.6C405.6,39,428.5,16.8,456.1,1
			H251v395.7H346.8z"/>
		<rect x="434.2" y="343.5" width="69.7" height="53.2"/>
		<path d="M439.8,99.7c-3.7,27.6-5.6,87-5.6,178v37.8h69.1V11.3c-10.1,4.6-19.5,11-28.3,19.2C455.3,49,443.6,72.1,439.8,99.7z"/>
		<path class="st0" d="M387,67.7c-18.9,29.5-30.4,58-34.4,85.6c-4.1,27.7-6.1,66.7-6.1,117v45.1h-97.4l-5.1,28h102.4v53.2v0.1
			l87.8-0.1v-0.1v-53.2h67.6h2.2l0-28h-2.2h-67.6v-37.8c0-91,1.8-150.3,5.5-178c3.7-27.6,15.1-50.7,34.4-69.2
			c8.6-8.2,17.8-14.6,27.7-19.2c0.6-0.3,1.3-0.6,1.9-0.9l0-10l-46.8,0c-0.3,0.2-0.6,0.3-0.8,0.5C428.5,16.8,405.4,39,387,67.7z"/>
	</g>
	<g>
		<path d="M755.3,136.6c-0.1,0.1-0.1,0.1-0.2,0.2l-102.7,89.6l-12.5,169l-86.7,0.1l6.9-96.4l-56.1,44.5c0,0-1.2-0.2-1.3-0.2
			l1.1,53.6l252.2-1.3L755.3,136.6z"/>
		<polygon points="755.3,1.2 501.4,1.2 503.3,315.4 755.3,107.7 		"/>
		<path class="st0" d="M560.1,298.9l-6.9,96.4l86.7-0.1l12.5-169l102.7-89.6c0.1-0.1,0.1-0.1,0.2-0.2c0.1-0.1,0.2-0.2,0.3-0.3
			l0-28.9l-0.3,0.3L503.8,315.6l-0.5,0.4c-0.4,0.3-0.9,0.7-1.3,1.1l0,26.4c1.7,0,1.9,0,2,0L560.1,298.9z"/>
	</g>
	<g>
		<defs>
			<path id="SVGID_1_" d="M876.6,107.5c12-44.6,32-74,60.1-88c15.5-7.7,29.6-9.5,42.4-5.4c12.8,4.1,21.6,11.2,26.6,21.2
				c10.6,21.3,6.3,36.8-13.1,46.4C982,87,969.4,85,955.1,75.6c-13.2-8.7-23.7-11.1-31.5-7.3c-12.3,6.1-21.7,21.3-28.1,45.5
				c30,18.1,52.5,42,67.3,71.6c19.3,38.7,22.5,79.8,9.6,123.4c-12.8,43.9-54.4,82.5-119.2,117.6c-67.4,36.4-91.9,68.1-79.1,93.6
				c6,11.9,17.9,16.5,35.8,13.6c17.8-2.4,51.7-14.5,101.8-36.2c54.6-24,98.1-39.5,130.5-46.6c32.4-7.1,62.6-3.9,90.7,9.5
				c28.1,13.4,49.7,35.3,64.9,65.6c21.3,42.6,21,85.6-0.8,129.2c-21.8,43.5-65.5,81.6-131.1,114.3c-60.1,29.9-114,42.3-161.8,37.1
				c-47.8-5.2-80.6-25.5-98.3-61c-9.8-19.7-12.7-38.4-8.7-56.1c4-17.7,15.6-31.4,34.7-40.9c5.2-2.6,10.2-4.1,15.3-4.6
				c-9.1,31.9-7.5,60.1,4.8,84.7c14.2,28.4,39.2,45.2,75.2,50.5c35.9,5.3,80.4-5.3,133.4-31.7c47.2-23.5,79.2-51.3,96.1-83.3
				c16.9-32,18-62.7,3.3-92c-16.1-32.3-39.3-49.1-69.5-50.6c-30-1.2-75.9,12-137.6,39.6c-70.9,31.7-120.3,45.6-148,41.7
				c-27.6-3.6-46.9-16.3-57.9-38.3c-21.1-42.3-4.9-83.6,48.8-124c-39.7-2.8-73.1-11.9-100.3-27.4c-27.1-15.5-47.9-37.6-62.2-66.3
				c-20.2-40.3-21.4-82.5-3.7-126.6c17.7-44.1,53.6-78.5,97.2-100.2C780.5,93,827,89.9,876.6,107.5z M711.2,321.7
				c20.8,41.6,37.5,74.8,64.3,85.6c26.8,10.8,60.5,2.7,87-10.5c24.5-12.2,40.8-32.3,48.9-60.3c8-28,0.2-65.7-23.5-113.1
				c-23.9-47.7-49.7-76-77.4-84.7c-27.8-8.7-48.6-6.2-72.2,5.6c-29.7,14.8-51.3,36-55,65.7C679.5,239.6,688.8,276.8,711.2,321.7z"/>
		</defs>
		<clipPath id="SVGID_2_">
			<use xlink:href="#SVGID_1_"  style="overflow:visible;"/>
		</clipPath>
		<rect x="754.6" y="-0.4" class="st1" width="251.9" height="395.7"/>
	</g>
	<g>
		<defs>
			
				<rect id="SVGID_3_" x="251.1" y="396.7" transform="matrix(1 -2.964736e-03 2.964736e-03 1 -1.7622 1.1622)" width="280" height="396.5"/>
		</defs>
		<clipPath id="SVGID_4_">
			<use xlink:href="#SVGID_3_"  style="overflow:visible;"/>
		</clipPath>
		<g class="st2">
			<path d="M179.3,703.6l75.5-11c2.5,30.5,21.2,44.8,41.9,44.9c14.7,0.1,24.5-5.1,29.5-15.5c5-10.5,7.6-29.1,7.7-56.1l0.4-71.4
				l-80.8-0.5l-6.7-83.8l98,0.4l1.8-306.1l-98.9,0.3l0.5-82.6l250.9,1.5l-0.5,82.6l-63.6,0.7l-1.8,306.1l63.6-0.7l-0.5,83l-69.1-0.4
				l-0.4,73.1c-0.3,43.1-11,78-32.3,104.8c-21.3,26.8-52.5,40.1-93.8,39.8c-34.1-0.2-61.5-9.4-82.2-27.6
				C197.8,767,184.8,739.8,179.3,703.6z"/>
		</g>
	</g>
	<g>
		<path d="M70.9,626.7c36.6,1.3,66.6,1.1,90.1-0.5c23.5-1.6,43.9-6,61.4-13.1c9.7-4,20-9.8,30.8-17.4V396.7h-2.8
			c-9.1,38.8-24.7,75.3-46.7,109.5C171.7,555.9,127.4,596.1,70.9,626.7z"/>
		<path d="M228.7,704.5c-17.2,7-35.5,11.3-54.9,12.8c-19.5,1.5-46.5,1.3-81-0.9c-34.6-1.4-61.3-1.6-80.2-0.7c-4,0.2-8,0.6-12,1v75.1
			h252.6V691.6C246.7,696.2,238.5,700.5,228.7,704.5z"/>
		<path d="M0.6,555.9c42-18.9,74.9-46.5,98.6-82.8c15.6-23.8,27-49.3,34.4-76.3H0.6V555.9z"/>
	</g>
	<g>
		<g>
			<rect x="-0.1" y="-0.1" class="st3" width="1013.1" height="792.9"/>
		</g>
		<line class="st4" x1="-0.6" y1="-54.6" x2="-0.6" y2="-18.6"/>
		<line class="st4" x1="-54.6" y1="-0.6" x2="-18.6" y2="-0.6"/>
		<line class="st4" x1="-54.6" y1="793.3" x2="-18.6" y2="793.3"/>
		<line class="st4" x1="-0.6" y1="847.3" x2="-0.6" y2="811.3"/>
		<line class="st4" x1="1013.5" y1="-54.6" x2="1013.5" y2="-18.6"/>
		<line class="st4" x1="1067.5" y1="-0.6" x2="1031.5" y2="-0.6"/>
		<line class="st4" x1="1067.5" y1="793.3" x2="1031.5" y2="793.3"/>
		<line class="st4" x1="1013.5" y1="847.3" x2="1013.5" y2="811.3"/>
	</g>
	<g>
		<defs>
			<rect id="SVGID_5_" x="0.6" y="1" width="250.4" height="395.7"/>
		</defs>
		<clipPath id="SVGID_6_">
			<use xlink:href="#SVGID_5_"  style="overflow:visible;"/>
		</clipPath>
		<g class="st5">
			<defs>
				<path id="SVGID_7_" d="M-48.3,216.2c20.5,14.1,41.2,30,62,47.7C140,371.2,196.9,484.7,184.5,604.5
					C172,724.2,89.3,827.2-63.8,913.6c-148.3,83.7-308.1,116.6-479.2,98.8c-171.1-17.8-317.5-78.4-439.1-181.7
					c-74.9-63.7-127.3-136.5-157.1-218.4c-29.8-82-23.5-160.3,19-235.1c42.5-74.8,111.4-139,206.7-192.7
					c110.9-62.5,232.4-97.9,364.6-106.2c132.2-8.2,259.8,15.7,382.7,72l290.4,81c-13.4-9.4-24.5-17.8-33.4-25.4
					C5.1,132.9-69.9,35.7-134-85.8c-49.2-93.4-98.9-161.5-149.1-204.1c-69.5-59.1-143-76-220.6-50.8l-24.3-20.7
					c72-31.3,147.2-42.4,225.8-33.2c78.6,9.2,147.8,39.2,207.6,90c39.4,33.5,67.4,68.3,84,104.5C6-163.8,20-112.4,31.4-45.7
					C51.6,73.9,92.5,160,154.3,212.5c37.1,31.5,92,48.3,162.8,57.5c46.9,6.3,73.7,16.8,82.6,24.4c13.9,11.8,13,22.1-2.6,30.9
					c-11.8,6.7-81.8,20.2-111,13.1c-29.1-7-30.9-35.9-104.4-59.5c-15.3-5-31.1-9.7-47.4-14.2L-48.3,216.2z M-191.4,798.1
					C-36.5,710.7,54.7,623.6,82,537c27.4-86.6-9.4-172.8-110.1-258.4c-88.4-75.1-197.1-112.6-326.2-112.4
					c-129.1,0.2-270.6,43.7-424.6,130.6c-149.7,84.5-239.3,170.7-268.5,258.7c-29.3,88,4.1,172.9,100.3,254.6
					c94.6,80.4,206,120,334.4,118.8C-484.5,927.7-344,884.1-191.4,798.1z"/>
			</defs>
			<clipPath id="SVGID_8_">
				<use xlink:href="#SVGID_7_"  style="overflow:visible;"/>
			</clipPath>
			<rect x="-370.1" y="-284" class="st6" width="635.4" height="681.4"/>
		</g>
	</g>
	<g>
		<defs>
			<rect id="SVGID_9_" x="498.9" y="395.6" width="257.1" height="397.9"/>
		</defs>
		<clipPath id="SVGID_10_">
			<use xlink:href="#SVGID_9_"  style="overflow:visible;"/>
		</clipPath>
		<g class="st7">
			<path d="M646,796.9L946.4,684L646,574.6v69.3h-93.6V395.5H646v76.7l676.2,256.9v173.2h-91.1V799.8L1074.9,738L646,908.2v87.1
				h-93.6V735H646V796.9z"/>
		</g>
	</g>
	<g>
		<defs>
			<rect id="SVGID_11_" x="754.7" y="395.4" width="253" height="397.4"/>
		</defs>
		<clipPath id="SVGID_12_">
			<use xlink:href="#SVGID_11_"  style="overflow:visible;"/>
		</clipPath>
		<g class="st8">
			<path d="M1025.1,593.8c-19.7-12.4-41.7-19.6-66-21.4c-24.3-1.8-47.4,2.3-69.3,12.3c-22,10-39.6,25.6-52.8,46.6
				c-13,20.6-19.4,42.7-19.4,66.4c0.1,23.6,6.3,45.9,18.5,66.8c12.2,20.9,28.9,38,49.9,51.2c21.5,13.6,44,21.5,67.7,23.9
				c23.6,2.4,45.9-1.4,66.9-11.3c20.9-9.9,38.1-25.5,51.5-46.7c13.5-21.5,20.4-44.2,20.6-68.3c0.2-24.1-5.8-46.7-17.9-67.8
				C1062.7,624.2,1046.1,607,1025.1,593.8z"/>
			<path d="M951.5,454l259,163.4c9.5,6,18.4,12.1,26.7,18.4V393.8H989.5L951.5,454z"/>
			<path d="M766.3,595.4c14.4-22.8,32.7-34.5,54.2-48.7c21.5-14.2,47.4-24.9,77.7-32.1l-50-31.5l56.3-89.3L756,395.6l-0.4,218.9
				C758.6,608.6,762.7,601.1,766.3,595.4z"/>
			<path d="M1150.7,1026.8l-21.4-74.6c21.6-8.5,40.3-18.8,56.1-31c15.8-12.2,29.7-27.7,41.6-46.6c3.9-6.2,7.3-12.4,10.2-18.5V752.3
				c-11.6-23.2-30.8-43.3-57.7-60.2l-32.2-20.3c8.1,26,10,53.6,5.6,82.8c-4.4,29.2-13.7,55.3-28.1,78.1
				c-20.2,32-46.4,55.6-78.8,70.9c-32.3,15.3-66.4,21.7-102.3,19.1c-35.9-2.6-69.8-14-101.8-34.2c-32.6-20.6-58.3-47.2-76.8-79.9
				c-3-5.2-5.7-10.5-8.2-15.8V1132h480.3V974.9C1211.9,998.2,1183.1,1015.6,1150.7,1026.8z"/>
		</g>
	</g>
</g>
</svg>
